<svg width="143" height="30" viewBox="0 0 143 30" fill="none" xmlns="http://www.w3.org/2000/svg">
<path d="M24.76 11H14.968V17.792C14.968 19.28 14.368 19.976 13.24 19.64V23C16.744 23.408 18.568 21.656 18.568 18.032V14.456H21.16V23H24.76V11ZM33.1581 23.336C36.6861 23.336 39.5181 20.576 39.5181 17C39.5181 13.424 36.6861 10.664 33.1581 10.664C29.6301 10.664 26.7981 13.424 26.7981 17C26.7981 20.576 29.6301 23.336 33.1581 23.336ZM33.1581 19.832C31.5981 19.832 30.3981 18.704 30.3981 17C30.3981 15.296 31.5981 14.168 33.1581 14.168C34.7181 14.168 35.9181 15.296 35.9181 17C35.9181 18.704 34.7181 19.832 33.1581 19.832ZM57.5134 23L53.5294 17L57.2734 11H53.2894L50.2654 16.136V11H46.7614V16.136L43.7374 11H39.7534L43.4974 17L39.5134 23H43.4974L46.7614 17.792V23H50.2654V17.792L53.5294 23H57.5134ZM61.3173 18.44H69.8373C69.9333 17.984 69.9813 17.504 69.9813 17C69.9813 13.376 67.3893 10.664 63.8853 10.664C60.0933 10.664 57.5013 13.424 57.5013 17C57.5013 20.576 60.0453 23.336 64.1493 23.336C66.4293 23.336 68.2053 22.496 69.3813 20.864L66.5013 19.208C66.0213 19.736 65.1813 20.12 64.1973 20.12C62.8773 20.12 61.7733 19.688 61.3173 18.44ZM61.2453 15.752C61.5813 14.528 62.4933 13.856 63.8613 13.856C64.9413 13.856 66.0213 14.36 66.4053 15.752H61.2453ZM84.7431 11H81.2871L78.3831 15.536L75.4791 11H72.0231V23H75.4791V16.808L78.1671 20.984H78.5991L81.2871 16.808V23H84.7431V11ZM90.5907 18.44H99.1107C99.2067 17.984 99.2547 17.504 99.2547 17C99.2547 13.376 96.6627 10.664 93.1587 10.664C89.3667 10.664 86.7747 13.424 86.7747 17C86.7747 20.576 89.3187 23.336 93.4227 23.336C95.7027 23.336 97.4787 22.496 98.6547 20.864L95.7747 19.208C95.2947 19.736 94.4547 20.12 93.4707 20.12C92.1507 20.12 91.0467 19.688 90.5907 18.44ZM90.5187 15.752C90.8547 14.528 91.7667 13.856 93.1347 13.856C94.2147 13.856 95.2947 14.36 95.6787 15.752H90.5187ZM108.977 11V15.32H104.897V11H101.297V23H104.897V18.68H108.977V23H112.577V11H108.977ZM124.938 11H114.138V14.456H117.762V23H121.362V14.456H124.938V11ZM132.108 14.6H130.092V11H126.492V23H132.108C135.012 23 136.812 21.32 136.812 18.8C136.812 16.28 135.012 14.6 132.108 14.6ZM138.012 11V23H141.612V11H138.012ZM132.132 19.88H130.092V17.72H132.132C132.852 17.72 133.308 18.176 133.308 18.8C133.308 19.424 132.852 19.88 132.132 19.88Z" fill="#395270"/>
<circle cx="4" cy="7" r="4" fill="#FF0000"/>
</svg>
